<!--?xml version="1.0" standalone="no"?-->
              <svg id="sw-js-blob-svg" viewBox="0 0 100 100" xmlns="http://www.w3.org/2000/svg" version="1.1">
                    <defs> 
                        <linearGradient id="sw-gradient" x1="0" x2="1" y1="1" y2="0">
                            <stop id="stop1" stop-color="rgba(250, 204, 21, 1)" offset="0%"></stop>
                            <stop id="stop2" stop-color="rgba(250, 204, 21, 1)" offset="100%"></stop>
                        </linearGradient>
                    </defs>
                <path fill="url(#sw-gradient)" d="M23.1,-28.9C30,-21.8,35.5,-14.5,35.7,-7.2C35.8,0.1,30.6,7.4,25.9,14.5C21.2,21.6,17.1,28.5,10.5,32.4C4,36.3,-5,37.2,-13.3,34.9C-21.7,32.6,-29.5,27,-32.4,19.8C-35.4,12.5,-33.5,3.5,-32.2,-5.9C-30.8,-15.3,-29.9,-24.9,-24.6,-32.3C-19.4,-39.6,-9.7,-44.7,-0.8,-43.8C8.1,-42.8,16.3,-36,23.1,-28.9Z" width="100%" height="100%" transform="translate(50 50)" stroke-width="0" style="transition: all 0.3s ease 0s;"></path>
              </svg>