<svg width="18" height="19" viewBox="0 0 18 19" fill="none" xmlns="http://www.w3.org/2000/svg">
<path d="M13.5001 18.6813C10.0978 18.6766 6.83618 17.2236 4.43041 14.6409C2.02465 12.0583 0.671158 8.55678 0.666748 4.90436C0.666748 3.81294 1.07062 2.76623 1.78951 1.99448C2.50839 1.22273 3.48342 0.789165 4.50008 0.789165C4.71536 0.787404 4.93029 0.808379 5.14175 0.851787C5.34617 0.884262 5.54714 0.938197 5.74175 1.01282C5.87862 1.06437 6.00059 1.15339 6.09559 1.27107C6.19059 1.38874 6.25533 1.531 6.28341 1.68377L7.42508 7.05142C7.45585 7.19712 7.45215 7.34877 7.4143 7.49254C7.37645 7.6363 7.30567 7.7676 7.20841 7.87446C7.10008 7.9997 7.09175 8.00865 6.06675 8.5812C6.88758 10.5143 8.32775 12.0667 10.1251 12.9558C10.6667 11.8465 10.6751 11.8376 10.7917 11.7213C10.8913 11.6169 11.0136 11.5409 11.1475 11.5002C11.2814 11.4596 11.4227 11.4556 11.5584 11.4887L16.5584 12.7143C16.6962 12.7486 16.8235 12.82 16.9285 12.9217C17.0335 13.0234 17.1126 13.1522 17.1584 13.2958C17.2287 13.5081 17.2817 13.7266 17.3167 13.9488C17.3503 14.1737 17.367 14.401 17.3667 14.6287C17.3514 15.7155 16.9362 16.7516 16.2117 17.5109C15.4873 18.2701 14.5125 18.6909 13.5001 18.6813ZM4.50008 2.57838C3.92612 2.58074 3.3763 2.82655 2.97044 3.26225C2.56459 3.69794 2.33561 4.2882 2.33341 4.90436C2.33562 8.08298 3.51282 11.1307 5.60649 13.3784C7.70017 15.626 10.5392 16.8897 13.5001 16.8921C14.074 16.8897 14.6239 16.6439 15.0297 16.2082C15.4356 15.7725 15.6646 15.1823 15.6667 14.5661C15.6667 14.4677 15.6667 14.3693 15.6667 14.2709L11.8001 13.3137L11.5584 13.8057C11.1834 14.584 10.9084 15.1476 10.2084 14.8435C8.82748 14.3128 7.574 13.4586 6.53903 12.3429C5.50406 11.2272 4.7136 9.878 4.22508 8.39333C3.92508 7.69554 4.49175 7.37348 5.20841 6.9709L5.66675 6.72936L4.77508 2.57838H4.50008Z" fill="black"/>
</svg>
