<svg width="16" height="18" viewBox="0 0 16 18" fill="none" xmlns="http://www.w3.org/2000/svg">
<path d="M15.0168 7.48333L8.59176 0.916665C8.51429 0.838558 8.42213 0.776562 8.32058 0.734255C8.21903 0.691948 8.11011 0.670166 8.0001 0.670166C7.89009 0.670166 7.78116 0.691948 7.67962 0.734255C7.57807 0.776562 7.4859 0.838558 7.40843 0.916665L0.983429 7.49166C0.82796 7.64839 0.705175 7.83444 0.622203 8.03901C0.539231 8.24357 0.497725 8.46259 0.500096 8.68333V15.6667C0.49945 16.0933 0.662407 16.5039 0.955408 16.8139C1.24841 17.124 1.64915 17.3099 2.0751 17.3333H13.9251C14.351 17.3099 14.7518 17.124 15.0448 16.8139C15.3378 16.5039 15.5007 16.0933 15.5001 15.6667V8.68333C15.5008 8.23578 15.3274 7.80548 15.0168 7.48333ZM6.33343 15.6667V10.6667H9.66676V15.6667H6.33343ZM13.8334 15.6667H11.3334V9.83333C11.3334 9.61232 11.2456 9.40036 11.0894 9.24408C10.9331 9.0878 10.7211 9 10.5001 9H5.5001C5.27908 9 5.06712 9.0878 4.91084 9.24408C4.75456 9.40036 4.66676 9.61232 4.66676 9.83333V15.6667H2.16676V8.65L8.0001 2.69166L13.8334 8.68333V15.6667Z" fill="black"/>
</svg>
