<svg width="16" height="16" viewBox="0 0 16 16" fill="none" xmlns="http://www.w3.org/2000/svg">
<path d="M14.7667 3.59167L12.4083 1.23333C11.9399 0.764358 11.3045 0.500584 10.6417 0.5H5.35833C4.69552 0.500584 4.06006 0.764358 3.59167 1.23333L1.23333 3.59167C0.764358 4.06006 0.500584 4.69552 0.5 5.35833V13C0.5 13.663 0.763392 14.2989 1.23223 14.7678C1.70107 15.2366 2.33696 15.5 3 15.5H13C13.663 15.5 14.2989 15.2366 14.7678 14.7678C15.2366 14.2989 15.5 13.663 15.5 13V5.35833C15.4994 4.69552 15.2356 4.06006 14.7667 3.59167ZM4.76667 2.40833C4.92636 2.25605 5.13769 2.16974 5.35833 2.16667H10.6417C10.8623 2.16974 11.0736 2.25605 11.2333 2.40833L12.6583 3.83333H3.34167L4.76667 2.40833ZM13 13.8333H3C2.77899 13.8333 2.56702 13.7455 2.41074 13.5893C2.25446 13.433 2.16667 13.221 2.16667 13V5.5H13.8333V13C13.8333 13.221 13.7455 13.433 13.5893 13.5893C13.433 13.7455 13.221 13.8333 13 13.8333Z" fill="black"/>
</svg>
