<svg width="8" height="8" viewBox="0 0 8 8" fill="none" xmlns="http://www.w3.org/2000/svg">
<path d="M4.00008 7.16667C4.65935 7.16667 5.30382 6.97117 5.85198 6.6049C6.40015 6.23863 6.82739 5.71803 7.07968 5.10895C7.33197 4.49986 7.39798 3.82964 7.26937 3.18303C7.14075 2.53643 6.82328 1.94249 6.3571 1.47631C5.89093 1.01014 5.29699 0.692668 4.65038 0.564051C4.00378 0.435433 3.33356 0.501444 2.72447 0.753736C2.11538 1.00603 1.59479 1.43327 1.22852 1.98143C0.862245 2.5296 0.666748 3.17406 0.666748 3.83333C0.666748 4.71739 1.01794 5.56524 1.64306 6.19036C2.26818 6.81548 3.11603 7.16667 4.00008 7.16667ZM4.00008 2.16667C4.32972 2.16667 4.65195 2.26442 4.92603 2.44755C5.20011 2.63069 5.41373 2.89099 5.53988 3.19553C5.66603 3.50007 5.69903 3.83518 5.63472 4.15849C5.57042 4.48179 5.41168 4.77876 5.17859 5.01185C4.9455 5.24493 4.64853 5.40367 4.32523 5.46798C4.00193 5.53229 3.66682 5.49928 3.36228 5.37313C3.05773 5.24699 2.79743 5.03337 2.6143 4.75928C2.43116 4.4852 2.33341 4.16297 2.33341 3.83333C2.33341 3.39131 2.50901 2.96738 2.82157 2.65482C3.13413 2.34226 3.55805 2.16667 4.00008 2.16667Z" fill="black"/>
</svg>
